# xmcd
#
# Track frame offsets:
#	150
#	23056
#	37544
#	52741
#	70733
#	89516
#	102010
#	124399
#	136620
#	154720
#	172438
#	191778
#
# Disc length: 2730 seconds
#
# Revision: 0
# Processed by: cddbd v1.5.2PL0 Copyright (c) Steve Scherf et al.
# Submitted via: EasyCDDAExtractor 10.0.4.1
#
DISCID=960aa80c
DTITLE=Norah Jones - Live at Studio 104, Maison de Radio-France, Paris 2007-01
DTITLE=20 [CD1)
DYEAR=2007
DGENRE=Blues
TTITLE0=Cold cold heart
TTITLE1=Sunrise
TTITLE2=Thinking about you
TTITLE3=Sinkin' soon
TTITLE4=Not too late
TTITLE5=Not my friend
TTITLE6=Humble me
TTITLE7=Wake me up
TTITLE8=Broken
TTITLE9=Until the end
TTITLE10=Creepin' in
TTITLE11=The long way home
EXTD=
EXTT0=
EXTT1=
EXTT2=
EXTT3=
EXTT4=
EXTT5=
EXTT6=
EXTT7=
EXTT8=
EXTT9=
EXTT10=
EXTT11=
PLAYORDER=
